<svg width="132" height="108" viewBox="0 0 132 108" fill="none" xmlns="http://www.w3.org/2000/svg">
<g clip-path="url(#clip0_17_26)">
<path d="M24.6589 71.2548L22.7602 73.037C21.3973 71.7004 19.9004 70.692 18.2697 70.0042C16.6467 69.3163 15.0553 68.9724 13.5191 68.9724C11.5968 68.9724 9.76902 69.4414 8.03581 70.3794C6.29472 71.3173 4.94754 72.5836 3.99427 74.186C3.041 75.7884 2.56043 77.4845 2.56043 79.2667C2.56043 81.0488 3.05676 82.831 4.04154 84.4803C5.02632 86.1295 6.39713 87.4193 8.13823 88.365C9.87932 89.3108 11.7859 89.7798 13.8657 89.7798C16.3868 89.7798 18.5139 89.0763 20.2628 87.6616C22.0039 86.2546 23.036 84.4255 23.359 82.1744H15.5517V79.8295H26.1085C26.0849 83.5814 24.9662 86.5673 22.7366 88.7793C20.515 90.9836 17.537 92.0935 13.8027 92.0935C9.27269 92.0935 5.68809 90.5615 3.04888 87.4974C1.01629 85.1368 0 82.4167 0 79.3214C0 77.0234 0.58299 74.8738 1.74897 72.8963C2.91495 70.9109 4.51423 69.3632 6.54682 68.2455C8.57941 67.1277 10.8799 66.5649 13.4403 66.5649C15.5123 66.5649 17.4739 66.9323 19.3017 67.6827C21.1373 68.4253 22.9178 69.6212 24.6668 71.2626L24.6589 71.2548Z" fill="#38C6F4"/>
<path d="M30.7882 67.1746H44.8272V69.5508H33.2383V77.1641H44.7327V79.5403H33.2383V89.092H44.7327V91.4682H30.7961V67.1668L30.7882 67.1746Z" fill="#38C6F4"/>
<path d="M49.0579 67.1746H51.508V89.131H60.9304V91.476H49.0579V67.1746Z" fill="#38C6F4"/>
<path d="M64.8221 67.1746H78.8612V69.5508H67.2723V77.1641H78.7588V79.5403H67.2723V89.092H78.7588V91.4682H64.8221V67.1668V67.1746Z" fill="#38C6F4"/>
<path d="M94.7596 66.565C98.4702 66.565 101.574 67.7921 104.072 70.2465C106.569 72.7009 107.822 75.7258 107.822 79.3136C107.822 82.9013 106.577 85.8872 104.08 88.3651C101.582 90.8429 98.5411 92.0779 94.9565 92.0779C91.3719 92.0779 88.26 90.8429 85.7626 88.3807C83.2652 85.9107 82.0126 82.9326 82.0126 79.423C82.0126 77.0859 82.5798 74.9207 83.7222 72.9275C84.8645 70.9344 86.4165 69.3711 88.3782 68.2455C90.3478 67.1199 92.4749 66.5493 94.7596 66.5493V66.565ZM94.8699 68.9255C93.0579 68.9255 91.3404 69.3945 89.7175 70.3325C88.0946 71.2705 86.8262 72.5289 85.9123 74.1235C84.9984 75.7102 84.5415 77.4767 84.5415 79.4308C84.5415 82.3229 85.5499 84.7617 87.5667 86.747C89.5836 88.7324 92.0179 89.7329 94.862 89.7329C96.7607 89.7329 98.5254 89.2796 100.14 88.3651C101.755 87.4505 103.024 86.1999 103.93 84.6132C104.836 83.0264 105.293 81.2599 105.293 79.3214C105.293 77.3829 104.836 75.6477 103.93 74.0844C103.024 72.5211 101.748 71.2783 100.101 70.3403C98.4545 69.4023 96.7055 68.9333 94.862 68.9333L94.8699 68.9255Z" fill="#38C6F4"/>
<path d="M112.753 91.476V67.1746H113.289L129.589 85.8012V67.1746H132V91.476H131.449L115.282 73.076V91.476H112.753Z" fill="#38C6F4"/>
<path d="M24.0129 105.968H22.3821V100.402H23.9814C24.5959 100.402 25.037 100.543 25.3049 100.824C25.5728 101.106 25.7067 101.434 25.7067 101.802C25.7067 102.364 25.4546 102.747 24.9504 102.951C25.6831 103.208 26.0455 103.701 26.0455 104.428C26.0455 105.452 25.3679 105.96 24.005 105.96L24.0129 105.968ZM23.1069 101.02V102.755H23.5796C24.005 102.755 24.2886 102.739 24.4147 102.708C24.5486 102.677 24.6668 102.591 24.7849 102.458C24.9031 102.325 24.9583 102.145 24.9583 101.927C24.9583 101.692 24.8952 101.505 24.7771 101.348C24.6589 101.192 24.5328 101.098 24.3989 101.075C24.265 101.051 23.9971 101.036 23.5796 101.036H23.1069V101.02ZM23.1069 103.412V105.358H23.8789C24.2413 105.358 24.5013 105.335 24.6589 105.288C24.8165 105.241 24.9504 105.139 25.0607 104.991C25.171 104.834 25.2261 104.647 25.2261 104.404C25.2261 104.1 25.1316 103.857 24.9346 103.677C24.7456 103.498 24.4856 103.404 24.1704 103.404H23.099L23.1069 103.412Z" fill="#6D6E71"/>
<path d="M29.0944 102.607H29.7798C30.3312 102.607 30.7567 102.654 31.0639 102.732C31.3712 102.818 31.639 103.005 31.8675 103.294C32.0881 103.584 32.2063 103.92 32.2063 104.303C32.2063 104.764 32.0408 105.147 31.7178 105.475C31.3948 105.804 30.9064 105.96 30.2446 105.96H28.3774V100.395H29.0944V102.599V102.607ZM29.118 103.263V105.366H29.9531C30.93 105.366 31.4184 105.022 31.4184 104.342C31.4184 104.146 31.3633 103.959 31.2609 103.771C31.1585 103.584 31.0009 103.451 30.8039 103.38C30.5991 103.302 30.2446 103.271 29.7404 103.271H29.1259L29.118 103.263ZM33.191 100.402H33.9158V105.968H33.191V100.402Z" fill="#6D6E71"/>
<path d="M41.8808 98.1356V98.8235C41.5341 98.8782 40.9432 98.9251 40.1082 98.9485C39.5015 98.9642 39.0367 99.0111 38.7058 99.0658C38.3749 99.1283 38.0913 99.2377 37.8471 99.4097C37.6029 99.5817 37.398 99.8318 37.2326 100.176C37.0671 100.52 36.9647 100.903 36.9175 101.325L36.8466 102.106C37.0435 101.465 37.3665 101.004 37.8156 100.707C38.2646 100.41 38.761 100.262 39.3124 100.262C40.1475 100.262 40.8408 100.551 41.4002 101.129C41.9595 101.708 42.2353 102.396 42.2353 103.201C42.2353 104.006 41.9595 104.678 41.4002 105.249C40.8408 105.819 40.1475 106.108 39.3124 106.108C38.4774 106.108 37.7289 105.788 37.1302 105.155C36.5314 104.522 36.2321 103.521 36.2321 102.161C36.2321 101.207 36.3423 100.488 36.5629 100.004C36.7835 99.5113 37.0356 99.1596 37.3114 98.9485C37.595 98.7297 37.9574 98.5655 38.4064 98.4405C38.8555 98.3154 39.6906 98.2372 40.9196 98.206C41.2978 98.1981 41.6129 98.1747 41.8729 98.1356H41.8808ZM41.5026 103.216C41.5026 102.599 41.282 102.067 40.8487 101.63C40.4154 101.184 39.8954 100.965 39.3046 100.965C38.7137 100.965 38.2016 101.184 37.7604 101.63C37.3271 102.075 37.1065 102.607 37.1065 103.216C37.1065 103.826 37.3193 104.35 37.7368 104.78C38.1543 105.21 38.6743 105.428 39.2967 105.428C39.9191 105.428 40.4469 105.21 40.8645 104.78C41.282 104.35 41.4947 103.826 41.4947 103.216H41.5026Z" fill="#6D6E71"/>
<path d="M47.2852 100.262C48.1518 100.262 48.8687 100.574 49.436 101.192C49.9559 101.755 50.208 102.427 50.208 103.201C50.208 103.975 49.9323 104.655 49.3887 105.241C48.8451 105.819 48.1439 106.116 47.2852 106.116C46.4265 106.116 45.7253 105.827 45.1738 105.241C44.6302 104.662 44.3545 103.982 44.3545 103.201C44.3545 102.419 44.6145 101.762 45.1266 101.2C45.6938 100.574 46.4107 100.262 47.2773 100.262H47.2852ZM47.2852 100.965C46.6865 100.965 46.1665 101.184 45.7411 101.622C45.3078 102.059 45.095 102.591 45.095 103.216C45.095 103.615 45.1896 103.99 45.3944 104.342C45.5914 104.694 45.8592 104.959 46.1901 105.147C46.521 105.335 46.8913 105.428 47.2931 105.428C47.6949 105.428 48.0573 105.335 48.396 105.147C48.7269 104.959 48.9948 104.686 49.1917 104.342C49.3887 103.998 49.4911 103.623 49.4911 103.216C49.4911 102.591 49.2705 102.059 48.8451 101.622C48.4118 101.184 47.8997 100.965 47.301 100.965H47.2852Z" fill="#6D6E71"/>
<path d="M52.611 100.402H53.3358V101.426C53.6194 101.036 53.9503 100.746 54.3205 100.551C54.6908 100.355 55.1084 100.262 55.5653 100.262C56.361 100.262 57.0385 100.551 57.6058 101.114C58.173 101.684 58.4566 102.372 58.4566 103.169C58.4566 103.967 58.1809 104.678 57.6136 105.249C57.0543 105.819 56.3768 106.108 55.5811 106.108C55.132 106.108 54.7223 106.015 54.3521 105.835C53.9739 105.647 53.643 105.374 53.3358 105.014V108.008H52.611V100.41V100.402ZM55.4944 100.95C54.872 100.95 54.3442 101.168 53.9188 101.598C53.4933 102.028 53.2806 102.568 53.2806 103.208C53.2806 103.631 53.3752 104.014 53.5642 104.35C53.7533 104.686 54.029 104.952 54.3836 105.155C54.7381 105.35 55.1162 105.452 55.5102 105.452C55.9041 105.452 56.2586 105.35 56.6052 105.155C56.944 104.959 57.2197 104.678 57.4167 104.318C57.6215 103.959 57.7239 103.584 57.7239 103.193C57.7239 102.802 57.6215 102.419 57.4246 102.067C57.2276 101.716 56.9519 101.442 56.6131 101.247C56.2743 101.051 55.9041 100.95 55.5023 100.95H55.4944Z" fill="#6D6E71"/>
<path d="M64.8774 105.358L67.036 100.402H67.4142L69.5649 105.358H70.2424V106.679H69.5492V105.968H64.9089V106.71H64.1998V105.358H64.8774ZM67.2172 101.504L65.5785 105.358H68.7928L67.2172 101.504Z" fill="#6D6E71"/>
<path d="M74.93 100.262C75.7966 100.262 76.5135 100.574 77.0807 101.192C77.6007 101.755 77.8528 102.427 77.8528 103.201C77.8528 103.975 77.5771 104.655 77.0335 105.241C76.4899 105.819 75.7887 106.116 74.93 106.116C74.0712 106.116 73.3701 105.827 72.8186 105.241C72.275 104.662 71.9993 103.982 71.9993 103.201C71.9993 102.419 72.2593 101.762 72.7713 101.2C73.3386 100.574 74.0555 100.262 74.9221 100.262H74.93ZM74.93 100.965C74.3312 100.965 73.8113 101.184 73.3858 101.622C72.9525 102.059 72.7398 102.591 72.7398 103.216C72.7398 103.615 72.8344 103.99 73.0313 104.342C73.2283 104.694 73.4961 104.959 73.827 105.147C74.1579 105.335 74.5282 105.428 74.93 105.428C75.3318 105.428 75.702 105.335 76.0329 105.147C76.3638 104.959 76.6317 104.686 76.8286 104.342C77.0256 103.998 77.1201 103.623 77.1201 103.216C77.1201 102.591 76.9074 102.059 76.4741 101.622C76.0408 101.184 75.5287 100.965 74.93 100.965Z" fill="#6D6E71"/>
<path d="M81.8707 105.968H80.2399V100.402H81.847C82.4615 100.402 82.9027 100.543 83.1706 100.824C83.4384 101.106 83.5724 101.434 83.5724 101.802C83.5724 102.364 83.3203 102.747 82.8239 102.951C83.5487 103.208 83.919 103.701 83.919 104.428C83.919 105.452 83.2415 105.96 81.8785 105.96L81.8707 105.968ZM80.9647 101.02V102.755H81.4374C81.8628 102.755 82.1464 102.739 82.2725 102.708C82.4064 102.677 82.5246 102.591 82.6427 102.458C82.7609 102.325 82.8161 102.145 82.8161 101.927C82.8161 101.692 82.753 101.505 82.6349 101.348C82.5167 101.192 82.3906 101.098 82.2567 101.075C82.1228 101.051 81.847 101.036 81.4374 101.036H80.9647V101.02ZM80.9647 103.412V105.358H81.7367C82.0991 105.358 82.3591 105.335 82.5167 105.288C82.6742 105.241 82.8082 105.139 82.9185 104.991C83.0288 104.834 83.0839 104.647 83.0839 104.404C83.0839 104.1 82.9894 103.857 82.7924 103.677C82.6033 103.498 82.3434 103.404 82.0282 103.404H80.9568L80.9647 103.412Z" fill="#6D6E71"/>
<path d="M90.9622 104.123L91.5688 104.436C91.3719 104.826 91.1355 105.139 90.8756 105.374C90.6156 105.616 90.3162 105.796 89.9932 105.921C89.6702 106.046 89.2999 106.108 88.8824 106.108C87.9685 106.108 87.2516 105.811 86.7395 105.217C86.2274 104.623 85.9674 103.951 85.9674 103.201C85.9674 102.497 86.188 101.864 86.6213 101.317C87.1728 100.613 87.9133 100.262 88.843 100.262C89.7726 100.262 90.5604 100.621 91.1355 101.34C91.5452 101.848 91.75 102.482 91.7579 103.24H86.7158C86.7316 103.889 86.9364 104.412 87.3382 104.826C87.74 105.241 88.2363 105.444 88.8272 105.444C89.1108 105.444 89.3866 105.397 89.6623 105.295C89.9302 105.194 90.1586 105.061 90.3477 104.905C90.5368 104.741 90.7416 104.483 90.9622 104.115V104.123ZM90.9622 102.622C90.8677 102.239 90.7259 101.934 90.5447 101.708C90.3635 101.481 90.1192 101.293 89.812 101.153C89.5126 101.012 89.1896 100.942 88.8587 100.942C88.3072 100.942 87.8345 101.114 87.4406 101.465C87.1491 101.723 86.9364 102.106 86.7867 102.614H90.9701L90.9622 102.622Z" fill="#6D6E71"/>
<path d="M94.1608 100.402H94.8856V101.426C95.1692 101.036 95.5001 100.746 95.8704 100.551C96.2406 100.355 96.6582 100.262 97.1151 100.262C97.9108 100.262 98.5883 100.551 99.1556 101.114C99.7228 101.684 100.006 102.372 100.006 103.169C100.006 103.967 99.7228 104.678 99.1635 105.249C98.6041 105.819 97.9266 106.108 97.1309 106.108C96.6818 106.108 96.2721 106.015 95.9019 105.835C95.5237 105.647 95.1928 105.374 94.8856 105.014V108.008H94.1608V100.41V100.402ZM97.0442 100.95C96.4218 100.95 95.894 101.168 95.4686 101.598C95.0431 102.028 94.8304 102.568 94.8304 103.208C94.8304 103.631 94.925 104.014 95.114 104.35C95.3031 104.686 95.5789 104.952 95.9334 105.155C96.2879 105.35 96.666 105.452 97.06 105.452C97.4539 105.452 97.8084 105.35 98.155 105.155C98.4938 104.959 98.7695 104.678 98.9665 104.318C99.1713 103.959 99.2659 103.584 99.2659 103.193C99.2659 102.802 99.1635 102.419 98.9665 102.067C98.7695 101.716 98.4938 101.442 98.155 101.247C97.8163 101.051 97.446 100.95 97.0442 100.95Z" fill="#6D6E71"/>
<path d="M103.134 100.402V104.522L107.254 100.402H107.31V105.968H106.585V101.888L102.496 105.968H102.409V100.402H103.134Z" fill="#6D6E71"/>
<path d="M112.336 103.474H111.824L110.225 105.968H109.445L111.131 103.404C110.713 103.349 110.366 103.193 110.106 102.927C109.846 102.661 109.712 102.333 109.712 101.942C109.712 101.45 109.862 101.067 110.162 100.801C110.461 100.535 110.855 100.395 111.343 100.395H113.053V105.96H112.328V103.466L112.336 103.474ZM112.336 101.02H111.863C111.406 101.02 111.091 101.051 110.934 101.106C110.776 101.161 110.65 101.262 110.555 101.403C110.461 101.544 110.414 101.739 110.414 101.973C110.414 102.208 110.477 102.388 110.595 102.536C110.713 102.685 110.847 102.779 110.997 102.81C111.146 102.841 111.43 102.865 111.855 102.865H112.328V101.02H112.336Z" fill="#6D6E71"/>
<path d="M31.8911 28.1549C31.8911 28.1549 31.8911 28.1471 31.8911 28.1393C31.9069 25.8725 32.2456 23.6682 32.8838 21.5578C32.8207 21.7454 32.7498 21.9252 32.6947 22.1128C33.0807 20.6589 33.6558 19.1816 34.4121 17.7121C39.3912 7.73048 51.2243 0.711298 65.0349 0.711298C76.0723 0.711298 85.8492 5.20576 91.8682 12.1077C91.9942 12.2562 92.1203 12.4047 92.2463 12.5454C92.3566 12.6783 92.4669 12.8034 92.5772 12.9362C94.9407 15.7814 96.5951 18.8767 97.4302 21.933C97.2175 21.2608 96.9418 20.5807 96.6188 19.9085C97.2175 21.4718 97.6429 23.0976 97.9029 24.7625C97.9187 24.8407 97.9266 24.9189 97.9423 25.0049C98.0762 25.9663 98.155 26.9433 98.1708 27.9282C98.2023 26.8652 98.1708 25.7396 98.0526 24.528C97.3908 13.5537 85.3056 0.297025 65.87 0C65.7912 0 65.7045 0 65.6179 0C65.5233 0 65.4288 0 65.3343 0C65.2712 0 65.2003 0 65.1373 0C65.1058 0 65.0664 0 65.027 0C64.058 0 63.0811 0.0312658 62.0727 0.101614C44.5121 1.40696 34.0419 12.8503 32.3323 22.6677C32.0408 24.2388 31.9069 25.7005 31.8832 27.0528C31.8832 27.1544 31.8832 27.256 31.8832 27.3576C31.8832 27.4905 31.8832 27.6155 31.8832 27.7484C31.8753 27.8891 31.8753 28.022 31.8832 28.1549H31.8911Z" fill="#38C6F4"/>
<path d="M31.8912 29.7729C31.8912 29.7729 31.8912 29.7729 31.8912 29.7651C31.9069 28.1784 32.2457 26.6385 32.8838 25.1612C32.8208 25.2941 32.7499 25.4191 32.6947 25.552C33.0808 24.5359 33.6559 23.4963 34.4122 22.4723C39.3913 15.4922 51.2244 10.5757 65.0349 10.5757C76.0724 10.5757 85.8493 13.7179 91.8682 18.5485C91.9943 18.6501 92.1203 18.7517 92.2464 18.8533C92.3567 18.9471 92.467 19.0331 92.5773 19.1269C94.9408 21.1123 96.5952 23.2853 97.4303 25.4191C97.2176 24.9502 96.9418 24.4734 96.6188 23.9965C97.2176 25.0909 97.643 26.2242 97.903 27.3889C97.9187 27.4436 97.9266 27.4983 97.9424 27.5609C98.0763 28.2331 98.1551 28.9131 98.1708 29.6088C98.2024 28.8662 98.1708 28.0767 98.0527 27.2326C97.3988 19.5568 85.3135 10.2865 65.8779 10.0833C65.7991 10.0833 65.7125 10.0833 65.6258 10.0833C65.5313 10.0833 65.4367 10.0833 65.3422 10.0833C65.2792 10.0833 65.2083 10.0833 65.1452 10.0833C65.1137 10.0833 65.0743 10.0833 65.0349 10.0833C64.0659 10.0833 63.089 10.1067 62.0806 10.1536C44.52 11.0681 34.0498 19.0722 32.3402 25.935C32.0487 27.0372 31.9148 28.0533 31.8912 28.9991C31.8912 29.0694 31.8912 29.1398 31.8912 29.2101C31.8912 29.3039 31.8912 29.3899 31.8912 29.4837C31.8833 29.5775 31.8833 29.6713 31.8912 29.7651V29.7729Z" fill="#38C6F4"/>
<path d="M31.8912 31.0626C31.9069 30.2653 32.2457 29.4993 32.8838 28.7567C32.8208 28.8193 32.7499 28.8896 32.6947 28.9522C33.0808 28.4441 33.6559 27.9282 34.4122 27.4123C39.3913 23.9184 51.2244 21.464 65.0349 21.464C76.0724 21.464 85.8493 23.0351 91.8682 25.4504C91.9943 25.5051 92.1203 25.552 92.2464 25.6067C92.3567 25.6536 92.467 25.7005 92.5773 25.7474C94.9408 26.7401 96.5952 27.8266 97.4303 28.8974C97.2176 28.6629 96.9418 28.4285 96.6188 28.1861C97.2176 28.7333 97.643 29.2961 97.903 29.8823C97.9187 29.9136 97.9266 29.937 97.9424 29.9683C98.0763 30.3044 98.1551 30.6483 98.1708 30.9922C98.2024 30.6249 98.1708 30.2262 98.0527 29.8041C97.3988 25.9663 85.3135 21.3311 65.8779 21.2295C65.7991 21.2295 65.7125 21.2295 65.6258 21.2295C65.5313 21.2295 65.4367 21.2295 65.3422 21.2295C65.2792 21.2295 65.2083 21.2295 65.1452 21.2295C65.1137 21.2295 65.0743 21.2295 65.0349 21.2295C64.0659 21.2295 63.089 21.2373 62.0806 21.2608C44.52 21.7141 34.0498 25.724 32.3402 29.1554C32.0487 29.7025 31.9148 30.2184 31.8912 30.6874C31.8912 30.7265 31.8912 30.7578 31.8912 30.7968C31.8912 30.8437 31.8912 30.8906 31.8912 30.9375C31.8833 30.9844 31.8833 31.0313 31.8912 31.0782V31.0626Z" fill="#38C6F4"/>
<path d="M38.4852 28.1549C38.4852 28.1549 38.4852 28.1471 38.4852 28.1393C38.4931 25.8725 38.7688 23.6682 39.2809 21.5578C39.2258 21.7454 39.1706 21.9252 39.1312 22.1128C39.4385 20.6589 39.9033 19.1816 40.5099 17.7121C44.4963 7.73048 53.9739 0.711298 65.0349 0.711298C73.8743 0.711298 81.7053 5.20576 86.5268 12.1077C86.6292 12.2562 86.7316 12.4047 86.8261 12.5454C86.9128 12.6783 87.0073 12.8034 87.0861 12.9362C88.9769 15.7814 90.3004 18.8767 90.978 21.933C90.8047 21.2608 90.5841 20.5807 90.332 19.9085C90.8125 21.4718 91.1592 23.0976 91.3561 24.7625C91.364 24.8407 91.3798 24.9189 91.3876 25.0049C91.4979 25.9663 91.561 26.9433 91.5688 27.9282C91.5925 26.8652 91.5688 25.7396 91.4743 24.528C90.9543 13.5537 81.272 0.297025 65.6967 0C65.6337 0 65.5628 0 65.4997 0C65.4288 0 65.35 0 65.2713 0C65.2161 0 65.1688 0 65.1137 0C65.0822 0 65.0585 0 65.027 0C64.255 0 63.4671 0.0312658 62.6636 0.101614C48.593 1.40696 40.2106 12.8503 38.8397 22.6677C38.6113 24.2388 38.501 25.7005 38.4773 27.0528C38.4773 27.1544 38.4773 27.256 38.4773 27.3576C38.4773 27.4905 38.4773 27.6155 38.4773 27.7484C38.4695 27.8891 38.4695 28.022 38.4773 28.1549H38.4852Z" fill="#38C6F4"/>
<path d="M49.0972 28.1549C49.0972 28.1549 49.0972 28.1471 49.0972 28.1393C49.0972 25.8725 49.2705 23.6682 49.5699 21.5578C49.5383 21.7454 49.5068 21.9252 49.4753 22.1128C49.6644 20.6589 49.9401 19.1816 50.3025 17.7121C52.6975 7.73048 58.3856 0.703481 65.027 0.703481C70.3369 0.703481 75.0323 5.19794 77.9315 12.0999C77.9946 12.2484 78.0497 12.3969 78.1127 12.5376C78.1679 12.6705 78.2152 12.7955 78.2703 12.9284C79.4048 15.7736 80.2005 18.8689 80.6023 21.9252C80.4999 21.2529 80.3659 20.5729 80.2084 19.9007C80.4999 21.464 80.7047 23.0898 80.8229 24.7547C80.8229 24.8329 80.8386 24.9111 80.8386 24.997C80.9095 25.9585 80.941 26.9355 80.9489 27.9204C80.9647 26.8574 80.9489 25.7318 80.8938 24.5202C80.5944 13.5537 74.7802 0.297025 65.4288 0C65.3894 0 65.35 0 65.3106 0C65.2633 0 65.2239 0 65.1767 0C65.1452 0 65.1136 0 65.0821 0C65.0664 0 65.0506 0 65.027 0C64.5622 0 64.0895 0.0312658 63.6089 0.101614C55.1634 1.40696 50.1292 12.8503 49.3099 22.6677C49.1681 24.2388 49.105 25.7005 49.0972 27.0528C49.0972 27.1544 49.0972 27.256 49.0972 27.3576C49.0972 27.4905 49.0972 27.6155 49.0972 27.7484C49.0972 27.8891 49.0972 28.022 49.0972 28.1549Z" fill="#38C6F4"/>
<path d="M57.6766 28.1549V28.1393C57.6766 25.8725 57.7554 23.6682 57.8972 21.5578C57.8814 21.7454 57.8657 21.9252 57.8499 22.1128C57.9366 20.6589 58.0626 19.1816 58.2359 17.7121C59.3389 7.73048 61.9702 0.703481 65.0349 0.703481C67.485 0.703481 69.6515 5.19794 70.9908 12.0999C71.0223 12.2484 71.046 12.3969 71.0775 12.5376C71.1011 12.6705 71.1247 12.7955 71.1484 12.9284C71.6683 15.7736 72.0386 18.8689 72.2277 21.9252C72.1804 21.2529 72.1174 20.5729 72.0465 19.9007C72.1804 21.464 72.275 23.0898 72.3301 24.7547C72.3301 24.8329 72.3301 24.9111 72.3301 24.997C72.3616 25.9585 72.3774 26.9355 72.3774 27.9204C72.3774 26.8574 72.3774 25.7318 72.3537 24.5202C72.2119 13.5537 69.5333 0.297025 65.2161 0C65.2003 0 65.1767 0 65.1609 0C65.1373 0 65.1215 0 65.0979 0C65.0821 0 65.0664 0 65.0506 0C65.0506 0 65.0349 0 65.027 0C64.8143 0 64.5937 0.0312658 64.3731 0.101614C60.4734 1.40696 58.1493 12.8503 57.7711 22.6677C57.7081 24.2388 57.6766 25.7005 57.6687 27.0528C57.6687 27.1544 57.6687 27.256 57.6687 27.3576C57.6687 27.4905 57.6687 27.6155 57.6687 27.7484C57.6687 27.8891 57.6687 28.022 57.6687 28.1549H57.6766Z" fill="#38C6F4"/>
<path d="M82.6901 21.9564C83.0367 23.6526 83.3282 26.998 83.2416 28.7177C79.917 33.5326 65.0271 35.9479 54.9508 32.8448C51.4607 31.7661 48.4119 30.4607 45.6939 29.171C42.9759 27.8813 40.8172 26.8964 38.9974 27.5765C37.1854 28.2174 35.8067 30.6561 36.1769 34.963C36.563 39.1839 38.9974 44.6867 44.8036 49.2046C50.5311 53.6991 59.016 56.427 68.1547 55.6688C79.3182 54.7621 87.5904 49.0248 91.3719 42.7795C95.2244 36.4012 94.6335 31.258 92.853 29.3274C89.4575 38.668 81.8077 44.4678 73.118 46.7346C72.8817 45.9451 72.6453 45.1479 72.409 44.3584C83.1707 41.5523 92.4119 33.0558 90.3478 17.2978C95.5632 18.8611 100.29 24.0043 98.3757 34.6347C96.6346 44.8587 85.9675 56.7709 68.0838 58.131C46.0326 59.6943 32.159 44.8508 31.45 32.7041C30.5282 23.0273 34.4043 17.9466 37.5005 18.1654C39.9821 18.1654 42.1565 20.5807 44.8903 23.1367C47.624 25.7083 50.6256 27.9986 54.1315 29.4368C57.6294 30.8516 61.2219 31.5081 65.1768 31.3909C68.3753 31.2502 71.3769 30.5936 74.284 29.2805C77.1675 27.936 80.1927 25.9194 82.7137 21.9799L82.6901 21.9564Z" fill="#6D6E71"/>
</g>
<defs>
<clipPath id="clip0_17_26">
<rect width="132" height="108" fill="white"/>
</clipPath>
</defs>
</svg>
