<svg width="205" height="168" viewBox="0 0 205 168" fill="none" xmlns="http://www.w3.org/2000/svg">
<g clip-path="url(#clip0_51_516)">
<path d="M38.296 110.841L35.3474 113.613C33.2307 111.534 30.906 109.966 28.3733 108.896C25.8529 107.826 23.3814 107.291 20.9955 107.291C18.0101 107.291 15.1716 108.02 12.4799 109.479C9.77589 110.939 7.68368 112.908 6.20322 115.401C4.72277 117.893 3.97643 120.532 3.97643 123.304C3.97643 126.076 4.74724 128.849 6.27663 131.414C7.80603 133.98 9.93494 135.986 12.6389 137.457C15.3429 138.928 18.3038 139.658 21.5339 139.658C25.4491 139.658 28.7526 138.564 31.4688 136.363C34.1728 134.174 35.7756 131.329 36.2772 127.827H24.1522V124.18H40.5473C40.5106 130.016 38.7732 134.661 35.3107 138.102C31.8603 141.53 27.2355 143.257 21.436 143.257C14.4008 143.257 8.83378 140.874 4.735 136.108C1.57833 132.436 0 128.204 0 123.389C0 119.815 0.905401 116.471 2.7162 113.395C4.52701 110.306 7.01074 107.899 10.1674 106.16C13.3241 104.421 16.8967 103.546 20.8732 103.546C24.091 103.546 27.1376 104.117 29.9761 105.285C32.8269 106.44 35.5921 108.3 38.3083 110.853L38.296 110.841Z" fill="#38C6F4"/>
<path d="M47.8149 104.495H69.618V108.191H51.6201V120.034H69.4712V123.73H51.6201V138.588H69.4712V142.285H47.8272V104.482L47.8149 104.495Z" fill="#38C6F4"/>
<path d="M76.1884 104.494H79.9935V138.649H94.6267V142.296H76.1884V104.494Z" fill="#38C6F4"/>
<path d="M100.671 104.495H122.474V108.191H104.476V120.034H122.315V123.73H104.476V138.588H122.315V142.285H100.671V104.482V104.495Z" fill="#38C6F4"/>
<path d="M147.164 103.546C152.927 103.546 157.748 105.455 161.626 109.273C165.505 113.091 167.45 117.796 167.45 123.377C167.45 128.958 165.517 133.603 161.639 137.457C157.76 141.311 153.037 143.233 147.47 143.233C141.903 143.233 137.07 141.311 133.192 137.481C129.313 133.639 127.368 129.007 127.368 123.547C127.368 119.912 128.249 116.544 130.023 113.443C131.797 110.343 134.207 107.911 137.254 106.16C140.313 104.409 143.616 103.521 147.164 103.521V103.546ZM147.336 107.218C144.522 107.218 141.854 107.947 139.334 109.406C136.813 110.865 134.844 112.823 133.424 115.303C132.005 117.772 131.295 120.52 131.295 123.559C131.295 128.058 132.862 131.852 135.994 134.94C139.126 138.029 142.907 139.585 147.323 139.585C150.272 139.585 153.013 138.88 155.521 137.457C158.029 136.034 159.999 134.089 161.406 131.621C162.813 129.153 163.523 126.405 163.523 123.389C163.523 120.374 162.813 117.674 161.406 115.243C159.999 112.811 158.017 110.878 155.46 109.419C152.903 107.959 150.186 107.23 147.323 107.23L147.336 107.218Z" fill="#38C6F4"/>
<path d="M175.109 142.296V104.494H175.941L201.256 133.469V104.494H205V142.296H204.144L179.037 113.674V142.296H175.109Z" fill="#38C6F4"/>
<path d="M37.2927 164.839H34.76V156.182H37.2437C38.1981 156.182 38.8833 156.401 39.2993 156.838C39.7152 157.276 39.9232 157.787 39.9232 158.358C39.9232 159.234 39.5317 159.829 38.7487 160.145C39.8865 160.547 40.4494 161.313 40.4494 162.444C40.4494 164.036 39.3971 164.827 37.2805 164.827L37.2927 164.839ZM35.8856 157.142V159.841H36.6198C37.2805 159.841 37.7209 159.817 37.9167 159.769C38.1247 159.72 38.3082 159.586 38.4917 159.379C38.6753 159.173 38.7609 158.893 38.7609 158.553C38.7609 158.188 38.663 157.896 38.4795 157.653C38.296 157.41 38.1002 157.264 37.8922 157.227C37.6842 157.191 37.2682 157.167 36.6198 157.167H35.8856V157.142ZM35.8856 160.863V163.89H37.0847C37.6475 163.89 38.0513 163.854 38.296 163.781C38.5407 163.708 38.7487 163.55 38.92 163.319C39.0913 163.076 39.1769 162.784 39.1769 162.407C39.1769 161.933 39.0301 161.556 38.7242 161.276C38.4306 160.997 38.0268 160.851 37.5374 160.851H35.8734L35.8856 160.863Z" fill="#6D6E71"/>
<path d="M45.1843 159.61H46.2488C47.1052 159.61 47.7659 159.683 48.2431 159.804C48.7203 159.938 49.1363 160.23 49.4911 160.68C49.8337 161.13 50.0172 161.653 50.0172 162.248C50.0172 162.966 49.7603 163.562 49.2586 164.072C48.757 164.583 47.9984 164.826 46.9707 164.826H44.0709V156.169H45.1843V159.598V159.61ZM45.221 160.631V163.902H46.518C48.0351 163.902 48.7937 163.367 48.7937 162.309C48.7937 162.005 48.708 161.713 48.549 161.422C48.3899 161.13 48.1452 160.923 47.8393 160.814C47.5212 160.692 46.9707 160.643 46.1876 160.643H45.2333L45.221 160.631ZM51.5466 156.181H52.6722V164.838H51.5466V156.181Z" fill="#6D6E71"/>
<path d="M65.042 152.655V153.725C64.5037 153.81 63.586 153.883 62.2891 153.92C61.347 153.944 60.6251 154.017 60.1112 154.102C59.5974 154.199 59.1569 154.37 58.7776 154.637C58.3983 154.905 58.0802 155.294 57.8233 155.829C57.5663 156.364 57.4073 156.96 57.3339 157.616L57.2237 158.832C57.5296 157.835 58.0313 157.118 58.7287 156.656C59.4261 156.194 60.1969 155.963 61.0534 155.963C62.3503 155.963 63.427 156.412 64.2957 157.312C65.1644 158.212 65.5926 159.282 65.5926 160.534C65.5926 161.787 65.1644 162.832 64.2957 163.72C63.427 164.607 62.3503 165.057 61.0534 165.057C59.7564 165.057 58.5941 164.559 57.6642 163.574C56.7343 162.589 56.2694 161.033 56.2694 158.917C56.2694 157.434 56.4407 156.315 56.7833 155.561C57.1259 154.795 57.5174 154.248 57.9456 153.92C58.3861 153.579 58.9489 153.324 59.6463 153.129C60.3437 152.935 61.6406 152.813 63.5493 152.765C64.1366 152.753 64.626 152.716 65.0298 152.655H65.042ZM64.4547 160.559C64.4547 159.598 64.1121 158.771 63.4392 158.09C62.7663 157.397 61.9588 157.057 61.0411 157.057C60.1235 157.057 59.3282 157.397 58.643 158.09C57.9701 158.783 57.6275 159.61 57.6275 160.559C57.6275 161.507 57.9579 162.322 58.6063 162.99C59.2548 163.659 60.0623 164 61.0289 164C61.9955 164 62.8152 163.659 63.4637 162.99C64.1121 162.322 64.4425 161.507 64.4425 160.559H64.4547Z" fill="#6D6E71"/>
<path d="M73.4353 155.963C74.7811 155.963 75.8945 156.449 76.7755 157.41C77.583 158.285 77.9745 159.331 77.9745 160.535C77.9745 161.738 77.5463 162.796 76.7021 163.708C75.8578 164.608 74.7689 165.07 73.4353 165.07C72.1016 165.07 71.0127 164.62 70.1562 163.708C69.312 162.808 68.8838 161.751 68.8838 160.535C68.8838 159.319 69.2875 158.297 70.0828 157.422C70.9638 156.449 72.0772 155.963 73.423 155.963H73.4353ZM73.4353 157.057C72.5054 157.057 71.6979 157.398 71.0372 158.079C70.3642 158.759 70.0339 159.586 70.0339 160.559C70.0339 161.179 70.1807 161.763 70.4988 162.31C70.8047 162.857 71.2207 163.27 71.7346 163.562C72.2485 163.854 72.8235 164 73.4475 164C74.0715 164 74.6343 163.854 75.1604 163.562C75.6743 163.27 76.0903 162.845 76.3962 162.31C76.7021 161.775 76.8611 161.191 76.8611 160.559C76.8611 159.586 76.5185 158.759 75.8578 158.079C75.1849 157.398 74.3896 157.057 73.4597 157.057H73.4353Z" fill="#6D6E71"/>
<path d="M81.7063 156.182H82.8319V157.775C83.2724 157.167 83.7863 156.717 84.3613 156.413C84.9364 156.109 85.5848 155.963 86.2945 155.963C87.5302 155.963 88.5825 156.413 89.4634 157.288C90.3443 158.176 90.7848 159.246 90.7848 160.486C90.7848 161.726 90.3566 162.833 89.4756 163.72C88.6069 164.608 87.5547 165.058 86.319 165.058C85.6216 165.058 84.9853 164.912 84.4103 164.632C83.823 164.34 83.3091 163.915 82.8319 163.356V168.012H81.7063V156.194V156.182ZM86.1844 157.033C85.2178 157.033 84.398 157.373 83.7373 158.042C83.0766 158.711 82.7463 159.55 82.7463 160.547C82.7463 161.203 82.8931 161.799 83.1868 162.322C83.4804 162.845 83.9086 163.258 84.4592 163.574C85.0098 163.878 85.5971 164.036 86.2088 164.036C86.8206 164.036 87.3712 163.878 87.9095 163.574C88.4356 163.27 88.8639 162.833 89.1697 162.273C89.4879 161.714 89.6469 161.13 89.6469 160.522C89.6469 159.915 89.4879 159.319 89.182 158.772C88.8761 158.224 88.4479 157.799 87.9218 157.495C87.3956 157.191 86.8206 157.033 86.1966 157.033H86.1844Z" fill="#6D6E71"/>
<path d="M100.756 163.89L104.109 156.182H104.696L108.036 163.89H109.089V165.945H108.012V164.839H100.805V165.994H99.7042V163.89H100.756ZM104.39 157.896L101.845 163.89H106.837L104.39 157.896Z" fill="#6D6E71"/>
<path d="M116.368 155.963C117.714 155.963 118.828 156.449 119.709 157.41C120.516 158.285 120.908 159.331 120.908 160.535C120.908 161.738 120.48 162.796 119.635 163.708C118.791 164.608 117.702 165.07 116.368 165.07C115.035 165.07 113.946 164.62 113.089 163.708C112.245 162.808 111.817 161.751 111.817 160.535C111.817 159.319 112.221 158.297 113.016 157.422C113.897 156.449 115.01 155.963 116.356 155.963H116.368ZM116.368 157.057C115.439 157.057 114.631 157.398 113.97 158.079C113.297 158.759 112.967 159.586 112.967 160.559C112.967 161.179 113.114 161.763 113.42 162.31C113.726 162.857 114.142 163.27 114.656 163.562C115.169 163.854 115.745 164 116.368 164C116.992 164 117.568 163.854 118.081 163.562C118.595 163.27 119.011 162.845 119.317 162.31C119.623 161.775 119.77 161.191 119.77 160.559C119.77 159.586 119.44 158.759 118.767 158.079C118.094 157.398 117.298 157.057 116.368 157.057Z" fill="#6D6E71"/>
<path d="M127.148 164.839H124.615V156.182H127.111C128.065 156.182 128.75 156.401 129.166 156.838C129.582 157.276 129.79 157.787 129.79 158.358C129.79 159.234 129.399 159.829 128.628 160.145C129.754 160.547 130.329 161.313 130.329 162.444C130.329 164.036 129.277 164.827 127.16 164.827L127.148 164.839ZM125.741 157.142V159.841H126.475C127.135 159.841 127.576 159.817 127.772 159.769C127.98 159.72 128.163 159.586 128.347 159.379C128.53 159.173 128.616 158.893 128.616 158.553C128.616 158.188 128.518 157.896 128.334 157.653C128.151 157.41 127.955 157.264 127.747 157.227C127.539 157.191 127.111 157.167 126.475 157.167H125.741V157.142ZM125.741 160.863V163.89H126.94C127.502 163.89 127.906 163.854 128.151 163.781C128.396 163.708 128.604 163.55 128.775 163.319C128.946 163.076 129.032 162.784 129.032 162.407C129.032 161.933 128.885 161.556 128.579 161.276C128.286 160.997 127.882 160.851 127.392 160.851H125.728L125.741 160.863Z" fill="#6D6E71"/>
<path d="M141.267 161.969L142.209 162.456C141.903 163.064 141.536 163.55 141.132 163.915C140.729 164.292 140.264 164.571 139.762 164.766C139.26 164.96 138.685 165.058 138.037 165.058C136.618 165.058 135.504 164.596 134.709 163.672C133.914 162.748 133.51 161.702 133.51 160.535C133.51 159.44 133.852 158.455 134.525 157.604C135.382 156.51 136.532 155.963 137.976 155.963C139.419 155.963 140.643 156.522 141.536 157.641C142.172 158.431 142.49 159.416 142.503 160.595H134.672C134.697 161.605 135.015 162.419 135.639 163.064C136.263 163.708 137.034 164.024 137.951 164.024C138.392 164.024 138.82 163.951 139.248 163.793C139.664 163.635 140.019 163.428 140.313 163.185C140.606 162.93 140.924 162.529 141.267 161.957V161.969ZM141.267 159.635C141.12 159.039 140.9 158.565 140.619 158.212C140.337 157.86 139.958 157.568 139.481 157.349C139.016 157.13 138.514 157.021 138 157.021C137.144 157.021 136.41 157.288 135.798 157.835C135.345 158.237 135.015 158.832 134.782 159.623H141.279L141.267 159.635Z" fill="#6D6E71"/>
<path d="M146.234 156.182H147.36V157.775C147.801 157.167 148.314 156.717 148.89 156.413C149.465 156.109 150.113 155.963 150.823 155.963C152.058 155.963 153.111 156.413 153.992 157.288C154.873 158.176 155.313 159.246 155.313 160.486C155.313 161.726 154.873 162.833 154.004 163.72C153.135 164.608 152.083 165.058 150.847 165.058C150.15 165.058 149.514 164.912 148.938 164.632C148.351 164.34 147.837 163.915 147.36 163.356V168.012H146.234V156.194V156.182ZM150.713 157.033C149.746 157.033 148.926 157.373 148.266 158.042C147.605 158.711 147.274 159.55 147.274 160.547C147.274 161.203 147.421 161.799 147.715 162.322C148.009 162.845 148.437 163.258 148.987 163.574C149.538 163.878 150.125 164.036 150.737 164.036C151.349 164.036 151.899 163.878 152.438 163.574C152.964 163.27 153.392 162.833 153.698 162.273C154.016 161.714 154.163 161.13 154.163 160.522C154.163 159.915 154.004 159.319 153.698 158.772C153.392 158.224 152.964 157.799 152.438 157.495C151.912 157.191 151.337 157.033 150.713 157.033Z" fill="#6D6E71"/>
<path d="M160.17 156.182V162.589L166.569 156.182H166.655V164.839H165.529V158.492L159.179 164.839H159.045V156.182H160.17Z" fill="#6D6E71"/>
<path d="M174.461 160.96H173.666L171.182 164.838H169.971L172.589 160.85C171.941 160.765 171.402 160.522 170.998 160.108C170.595 159.695 170.387 159.184 170.387 158.576C170.387 157.81 170.619 157.215 171.084 156.801C171.549 156.388 172.161 156.169 172.919 156.169H175.574V164.826H174.449V160.947L174.461 160.96ZM174.461 157.142H173.727C173.017 157.142 172.528 157.19 172.283 157.275C172.038 157.361 171.843 157.519 171.696 157.737C171.549 157.956 171.476 158.26 171.476 158.625C171.476 158.99 171.574 159.269 171.757 159.5C171.941 159.732 172.149 159.877 172.381 159.926C172.613 159.975 173.054 160.011 173.715 160.011H174.449V157.142H174.461Z" fill="#6D6E71"/>
<path d="M49.5279 43.7965C49.5279 43.7965 49.5279 43.7843 49.5279 43.7722C49.5523 40.2461 50.0785 36.8173 51.0695 33.5343C50.9716 33.8262 50.8615 34.1058 50.7759 34.3976C51.3754 32.1361 52.2686 29.838 53.4431 27.5521C61.1757 12.0252 79.5529 1.10646 101.001 1.10646C118.143 1.10646 133.326 8.09785 142.674 18.8342C142.87 19.0652 143.066 19.2962 143.261 19.5151C143.433 19.7218 143.604 19.9163 143.775 20.123C147.446 24.5489 150.015 29.3638 151.312 34.118C150.982 33.0723 150.554 32.0145 150.052 30.9688C150.982 33.4006 151.642 35.9296 152.046 38.5195C152.071 38.6411 152.083 38.7627 152.107 38.8964C152.315 40.392 152.438 41.9118 152.462 43.4439C152.511 41.7903 152.462 40.0394 152.279 38.1547C151.251 21.0836 132.482 0.462039 102.298 0C102.176 0 102.041 0 101.907 0C101.76 0 101.613 0 101.466 0C101.368 0 101.258 0 101.16 0C101.111 0 101.05 0 100.989 0C99.484 0 97.9669 0.0486357 96.4008 0.158066C69.1286 2.18861 52.8681 19.9893 50.213 35.2609C49.7603 37.7049 49.5524 39.9786 49.5156 42.0821C49.5156 42.2401 49.5156 42.3982 49.5156 42.5563C49.5156 42.763 49.5156 42.9575 49.5156 43.1642C49.5034 43.3831 49.5034 43.5898 49.5156 43.7965H49.5279Z" fill="#38C6F4"/>
<path d="M49.5279 46.3129C49.5279 46.3129 49.5279 46.3129 49.5279 46.3008C49.5523 43.8325 50.0784 41.4372 51.0695 39.1392C50.9716 39.3459 50.8615 39.5404 50.7758 39.7471C51.3754 38.1664 52.2685 36.5493 53.4431 34.9565C61.1757 24.0986 79.5529 16.4506 101.001 16.4506C118.143 16.4506 133.326 21.3385 142.674 28.8527C142.87 29.0108 143.066 29.1688 143.261 29.3269C143.433 29.4728 143.604 29.6066 143.775 29.7525C147.446 32.8408 150.015 36.221 151.312 39.5404C150.982 38.8109 150.554 38.0692 150.052 37.3275C150.982 39.0297 151.642 40.7928 152.046 42.6045C152.071 42.6896 152.083 42.7747 152.107 42.8719C152.315 43.9176 152.438 44.9754 152.462 46.0576C152.511 44.9025 152.462 43.6744 152.279 42.3613C151.263 30.4212 132.494 16.0007 102.31 15.6846C102.188 15.6846 102.053 15.6846 101.919 15.6846C101.772 15.6846 101.625 15.6846 101.478 15.6846C101.38 15.6846 101.27 15.6846 101.172 15.6846C101.124 15.6846 101.062 15.6846 101.001 15.6846C99.4962 15.6846 97.9791 15.721 96.413 15.794C69.1408 17.2166 52.8803 29.6673 50.2253 40.3429C49.7726 42.0573 49.5646 43.638 49.5279 45.1092C49.5279 45.2186 49.5279 45.3281 49.5279 45.4375C49.5279 45.5834 49.5279 45.7171 49.5279 45.863C49.5156 46.009 49.5156 46.1549 49.5279 46.3008V46.3129Z" fill="#38C6F4"/>
<path d="M49.5279 48.3194C49.5523 47.0792 50.0784 45.8876 51.0695 44.7325C50.9716 44.8298 50.8615 44.9392 50.7758 45.0365C51.3754 44.2461 52.2685 43.4436 53.4431 42.6412C61.1757 37.2061 79.5529 33.3882 101.001 33.3882C118.143 33.3882 133.326 35.8322 142.674 39.5893C142.87 39.6744 143.066 39.7473 143.261 39.8324C143.433 39.9054 143.604 39.9783 143.775 40.0513C147.446 41.5955 150.015 43.2856 151.312 44.9514C150.982 44.5866 150.554 44.2218 150.052 43.8449C150.982 44.696 151.642 45.5715 152.046 46.4834C152.071 46.532 152.083 46.5685 152.107 46.6171C152.315 47.14 152.438 47.675 152.462 48.2099C152.511 47.6385 152.462 47.0184 152.279 46.3618C151.263 40.3918 132.494 33.1815 102.31 33.0234C102.188 33.0234 102.053 33.0234 101.919 33.0234C101.772 33.0234 101.625 33.0234 101.478 33.0234C101.38 33.0234 101.27 33.0234 101.172 33.0234C101.124 33.0234 101.062 33.0234 101.001 33.0234C99.4962 33.0234 97.9791 33.0356 96.413 33.0721C69.1408 33.7773 52.8803 40.0148 50.2253 45.3526C49.7726 46.2037 49.5646 47.0062 49.5279 47.7357C49.5279 47.7965 49.5279 47.8452 49.5279 47.906C49.5279 47.9789 49.5279 48.0519 49.5279 48.1248C49.5156 48.1978 49.5156 48.2707 49.5279 48.3437V48.3194Z" fill="#38C6F4"/>
<path d="M59.7687 43.7965C59.7687 43.7965 59.7687 43.7843 59.7687 43.7722C59.781 40.2461 60.2092 36.8173 61.0045 33.5343C60.9188 33.8262 60.8332 34.1058 60.772 34.3976C61.2492 32.1361 61.9711 29.838 62.9132 27.5521C69.1041 12.0252 83.823 1.10646 101.001 1.10646C114.729 1.10646 126.891 8.09785 134.379 18.8342C134.538 19.0652 134.697 19.2962 134.844 19.5151C134.978 19.7218 135.125 19.9163 135.247 20.123C138.184 24.5489 140.239 29.3638 141.292 34.118C141.022 33.0723 140.68 32.0145 140.288 30.9688C141.035 33.4006 141.573 35.9296 141.879 38.5195C141.891 38.6411 141.916 38.7627 141.928 38.8964C142.099 40.392 142.197 41.9118 142.209 43.4439C142.246 41.7903 142.209 40.0394 142.062 38.1547C141.255 21.0836 126.218 0.462039 102.029 0C101.931 0 101.821 0 101.723 0C101.613 0 101.491 0 101.368 0C101.283 0 101.209 0 101.124 0C101.075 0 101.038 0 100.989 0C99.7899 0 98.5664 0.0486357 97.3184 0.158066C75.4664 2.18861 62.4482 19.9893 60.3193 35.2609C59.9645 37.7049 59.7932 39.9786 59.7565 42.0821C59.7565 42.2401 59.7565 42.3982 59.7565 42.5563C59.7565 42.763 59.7565 42.9575 59.7565 43.1642C59.7443 43.3831 59.7443 43.5898 59.7565 43.7965H59.7687Z" fill="#38C6F4"/>
<path d="M76.2495 43.7965C76.2495 43.7965 76.2495 43.7843 76.2495 43.7722C76.2495 40.2461 76.5187 36.8173 76.9836 33.5343C76.9347 33.8262 76.8857 34.1058 76.8368 34.3976C77.1304 32.1361 77.5587 29.838 78.1215 27.5521C81.841 12.0252 90.6748 1.0943 100.989 1.0943C109.235 1.0943 116.528 8.08569 121.03 18.822C121.128 19.053 121.214 19.2841 121.312 19.5029C121.397 19.7096 121.471 19.9042 121.556 20.1109C123.318 24.5367 124.554 29.3517 125.178 34.1058C125.019 33.0601 124.811 32.0023 124.566 30.9566C125.019 33.3884 125.337 35.9175 125.52 38.5073C125.52 38.6289 125.545 38.7505 125.545 38.8843C125.655 40.3798 125.704 41.8997 125.716 43.4317C125.741 41.7781 125.716 40.0272 125.631 38.1426C125.166 21.0836 116.136 0.462039 101.613 0C101.552 0 101.491 0 101.429 0C101.356 0 101.295 0 101.221 0C101.173 0 101.124 0 101.075 0C101.05 0 101.026 0 100.989 0C100.267 0 99.533 0.0486357 98.7867 0.158066C85.6706 2.18861 77.8523 19.9893 76.5799 35.2609C76.3596 37.7049 76.2617 39.9786 76.2495 42.0821C76.2495 42.2401 76.2495 42.3982 76.2495 42.5563C76.2495 42.763 76.2495 42.9575 76.2495 43.1642C76.2495 43.3831 76.2495 43.5898 76.2495 43.7965Z" fill="#38C6F4"/>
<path d="M89.5735 43.7965V43.7722C89.5735 40.2461 89.6959 36.8173 89.9161 33.5343C89.8916 33.8262 89.8672 34.1058 89.8427 34.3976C89.9773 32.1361 90.173 29.838 90.4422 27.5521C92.1551 12.0252 96.2417 1.0943 101.001 1.0943C104.806 1.0943 108.171 8.08569 110.251 18.822C110.3 19.053 110.337 19.2841 110.386 19.5029C110.422 19.7096 110.459 19.9042 110.496 20.1109C111.303 24.5367 111.878 29.3517 112.172 34.1058C112.098 33.0601 112.001 32.0023 111.89 30.9566C112.098 33.3884 112.245 35.9175 112.331 38.5073C112.331 38.6289 112.331 38.7505 112.331 38.8843C112.38 40.3798 112.404 41.8997 112.404 43.4317C112.404 41.7781 112.404 40.0272 112.368 38.1426C112.147 21.0836 107.987 0.462039 101.283 0C101.258 0 101.221 0 101.197 0C101.16 0 101.136 0 101.099 0C101.075 0 101.05 0 101.026 0C101.026 0 101.001 0 100.989 0C100.659 0 100.316 0.0486357 99.9734 0.158066C93.917 2.18861 90.3076 19.9893 89.7203 35.2609C89.6225 37.7049 89.5735 39.9786 89.5613 42.0821C89.5613 42.2401 89.5613 42.3982 89.5613 42.5563C89.5613 42.763 89.5613 42.9575 89.5613 43.1642C89.5613 43.3831 89.5613 43.5898 89.5613 43.7965H89.5735Z" fill="#38C6F4"/>
<path d="M128.42 34.1549C128.959 36.7934 129.411 41.9974 129.277 44.6724C124.113 52.1623 100.989 55.9194 85.3402 51.0923C79.92 49.4144 75.185 47.3839 70.9639 45.3776C66.7428 43.3714 63.3903 41.8394 60.564 42.8972C57.7499 43.8942 55.6088 47.6878 56.1838 54.3874C56.7833 60.9532 60.564 69.5131 69.5813 76.541C78.4763 83.5324 91.6535 87.7758 105.846 86.5964C123.184 85.186 136.03 76.2613 141.903 66.5463C147.886 56.6246 146.969 48.6241 144.204 45.6208C138.93 60.1507 127.05 69.1727 113.554 72.6988C113.187 71.4707 112.82 70.2305 112.453 69.0024C129.167 64.6374 143.518 51.4206 140.313 26.9082C148.412 29.34 155.754 37.3406 152.78 53.8767C150.076 69.7806 133.51 88.3108 105.736 90.4265C71.49 92.8583 49.9439 69.7685 48.8427 50.8735C47.4112 35.8207 53.4309 27.9174 58.2393 28.2578C62.0934 28.2578 65.4703 32.015 69.7159 35.9909C73.9615 39.9912 78.6231 43.5538 84.0677 45.791C89.5001 47.9918 95.0794 49.0131 101.221 48.8308C106.189 48.6119 110.85 47.5906 115.365 45.5479C119.843 43.4565 124.542 40.3195 128.457 34.1914L128.42 34.1549Z" fill="#6D6E71"/>
</g>
<defs>
<clipPath id="clip0_51_516">
<rect width="205" height="168" fill="white"/>
</clipPath>
</defs>
</svg>
