<svg width="149" height="152" viewBox="0 0 149 152" fill="none" xmlns="http://www.w3.org/2000/svg">
<g filter="url(#filter0_ddddd_40_74)">
<rect x="1" y="1" width="130" height="130" rx="65" fill="white"/>
<path d="M24 69.8047C52.05 69.8047 80.1 69.8047 109 69.8047C109 74.468 109 74.468 108.034 75.4006C105.248 75.4833 102.485 75.5081 99.6993 75.4917C98.4472 75.4897 98.4472 75.4897 97.1697 75.4877C94.4926 75.4825 91.8156 75.4708 89.1385 75.4589C87.328 75.4542 85.5176 75.45 83.7071 75.4462C79.2593 75.4367 74.8115 75.4184 70.3636 75.4006C70.3636 85.5573 70.3636 95.7139 70.3636 106.178C67.8136 106.486 65.2636 106.794 62.6364 107.111C62.6364 96.6465 62.6364 86.1821 62.6364 75.4006C58.5742 75.4169 58.5742 75.4169 54.4299 75.4334C51.8182 75.4407 49.2066 75.4464 46.5949 75.4519C44.7743 75.4566 42.9538 75.4629 41.1333 75.471C38.5224 75.4823 35.9116 75.4876 33.3006 75.4917C32.4816 75.4965 31.6626 75.5013 30.8188 75.5063C28.8675 75.5065 26.9163 75.4585 24.9659 75.4006C24 74.468 24 74.468 24 69.8047Z" fill="#292D32"/>
<path d="M100.307 53.0171C103.031 55.2228 103.184 56.5874 103.627 60.012C103.205 63.2763 103.205 63.2763 101.756 65.5497C98.8289 67.3161 96.8701 67.607 93.459 67.4223C91.6139 67.007 91.6139 67.007 89.1388 65.0834C87.3289 61.5122 87.6251 59.6079 88.7162 55.8151C92.0685 51.5931 95.125 51.8759 100.307 53.0171ZM90.8291 55.1156C89.4773 57.0392 88.8585 58.142 88.7162 60.4784C89.8249 62.5708 90.8505 64.4044 92.5798 66.0743C96.0052 66.4418 97.7946 66.4337 100.73 64.617C102.562 62.3192 102.562 62.3192 102.179 58.9628C101.587 55.5771 101.587 55.5771 98.3753 53.9498C94.3629 53.5221 94.3629 53.5221 90.8291 55.1156Z" fill="#292D32"/>
<path d="M42.3522 53.0171C45.0758 55.2228 45.2291 56.5874 45.6725 60.012C45.2499 63.2763 45.2499 63.2763 43.801 65.5497C40.874 67.3161 38.9152 67.607 35.504 67.4223C33.659 67.0069 33.659 67.0069 31.1838 65.0833C29.3467 61.4584 29.5339 59.6491 30.7612 55.8151C34.3706 51.715 37.108 51.5168 42.3522 53.0171ZM32.8138 54.9407C31.1063 57.7801 31.3715 60.0709 31.7272 63.2763C32.6742 65.2013 32.6742 65.2013 34.6249 66.0743C37.6397 66.4382 39.5508 66.5954 42.171 65.025C43.8195 62.5118 44.2212 60.6517 44.284 57.6804C42.8963 55.33 42.8963 55.33 40.4203 53.9497C37.3561 53.5271 35.5281 53.4555 32.8138 54.9407Z" fill="#292D32"/>
<path d="M89.6816 25.0373C90.7325 25.1046 91.7834 25.172 92.8661 25.2413C95.4771 25.97 95.4771 25.97 97.3787 28.0757C101.862 36.1822 101.862 36.1822 100.669 40.1347C100.231 41.0003 99.7923 41.8659 99.3407 42.7578C99.9782 43.0656 100.616 43.3733 101.273 43.6904C100.954 44.306 100.635 44.9216 100.307 45.5558C100.904 45.7674 101.502 45.979 102.118 46.197C104.905 47.8592 105.278 49.0337 106.102 52.0844C106.247 54.5951 106.19 57.0267 106.102 59.5456C105.465 58.6223 104.827 57.699 104.17 56.7476C101.91 54.2703 100.172 52.4136 96.9863 51.1517C93.5147 51.1517 91.5882 52.1006 88.7157 53.9497C86.8997 57.0581 86.7839 58.7038 86.7839 62.3436C73.7151 62.3436 60.6464 62.3436 47.1816 62.3436C46.5441 59.8814 45.9066 57.4192 45.2498 54.8823C43.7113 52.6894 42.7238 52.2239 40.1788 51.2683C36.2551 51.0961 34.1061 51.9759 30.7611 53.9497C29.3241 56.4229 28.6614 58.6461 27.8634 61.4109C27.5447 61.4109 27.2259 61.4109 26.8975 61.4109C26.5109 50.7303 26.5109 50.7303 28.8293 47.4211C31.4736 45.5569 34.1538 43.6904 37.5225 43.6904C37.614 42.8627 37.614 42.8627 37.7074 42.0182C38.8169 39.0942 40.5045 38.4326 43.2576 36.8704C47.8557 34.1915 52.2266 31.3422 56.5615 28.2834C66.3009 22.2012 78.6894 24.0934 89.6816 25.0373ZM49.7473 35.0524C49.2194 35.7486 48.6914 36.4447 48.1475 37.1619C49.8986 39.2448 49.8986 39.2448 52.3769 39.2565C59.6053 39.1834 66.6426 38.6163 73.8045 37.6865C74.8336 37.5608 75.8626 37.4352 76.9229 37.3058C82.414 36.644 82.414 36.644 87.7498 35.2965C87.4671 30.9689 87.4671 30.9689 85.5477 27.1854C80.9887 23.8505 72.4315 25.2588 66.995 25.6362C60.1559 26.5768 54.2126 30.0151 49.7473 35.0524Z" fill="#292D32"/>
<rect x="2" y="2" width="128" height="128" rx="64" stroke="#B4B4B4" stroke-width="2"/>
</g>
<defs>
<filter id="filter0_ddddd_40_74" x="0" y="0" width="149" height="152" filterUnits="userSpaceOnUse" color-interpolation-filters="sRGB">
<feFlood flood-opacity="0" result="BackgroundImageFix"/>
<feColorMatrix in="SourceAlpha" type="matrix" values="0 0 0 0 0 0 0 0 0 0 0 0 0 0 0 0 0 0 127 0" result="hardAlpha"/>
<feOffset/>
<feColorMatrix type="matrix" values="0 0 0 0 0 0 0 0 0 0 0 0 0 0 0 0 0 0 0.1 0"/>
<feBlend mode="normal" in2="BackgroundImageFix" result="effect1_dropShadow_40_74"/>
<feColorMatrix in="SourceAlpha" type="matrix" values="0 0 0 0 0 0 0 0 0 0 0 0 0 0 0 0 0 0 127 0" result="hardAlpha"/>
<feOffset dx="1" dy="1"/>
<feGaussianBlur stdDeviation="1"/>
<feColorMatrix type="matrix" values="0 0 0 0 0 0 0 0 0 0 0 0 0 0 0 0 0 0 0.1 0"/>
<feBlend mode="normal" in2="effect1_dropShadow_40_74" result="effect2_dropShadow_40_74"/>
<feColorMatrix in="SourceAlpha" type="matrix" values="0 0 0 0 0 0 0 0 0 0 0 0 0 0 0 0 0 0 127 0" result="hardAlpha"/>
<feOffset dx="3" dy="3"/>
<feGaussianBlur stdDeviation="2"/>
<feColorMatrix type="matrix" values="0 0 0 0 0 0 0 0 0 0 0 0 0 0 0 0 0 0 0.09 0"/>
<feBlend mode="normal" in2="effect2_dropShadow_40_74" result="effect3_dropShadow_40_74"/>
<feColorMatrix in="SourceAlpha" type="matrix" values="0 0 0 0 0 0 0 0 0 0 0 0 0 0 0 0 0 0 127 0" result="hardAlpha"/>
<feOffset dx="6" dy="8"/>
<feGaussianBlur stdDeviation="3"/>
<feColorMatrix type="matrix" values="0 0 0 0 0 0 0 0 0 0 0 0 0 0 0 0 0 0 0.05 0"/>
<feBlend mode="normal" in2="effect3_dropShadow_40_74" result="effect4_dropShadow_40_74"/>
<feColorMatrix in="SourceAlpha" type="matrix" values="0 0 0 0 0 0 0 0 0 0 0 0 0 0 0 0 0 0 127 0" result="hardAlpha"/>
<feOffset dx="11" dy="14"/>
<feGaussianBlur stdDeviation="3.5"/>
<feColorMatrix type="matrix" values="0 0 0 0 0 0 0 0 0 0 0 0 0 0 0 0 0 0 0.01 0"/>
<feBlend mode="normal" in2="effect4_dropShadow_40_74" result="effect5_dropShadow_40_74"/>
<feBlend mode="normal" in="SourceGraphic" in2="effect5_dropShadow_40_74" result="shape"/>
</filter>
</defs>
</svg>
