<svg width="153" height="156" viewBox="0 0 153 156" fill="none" xmlns="http://www.w3.org/2000/svg">
<g filter="url(#filter0_ddddd_40_88)">
<rect x="2" y="2" width="130" height="130" rx="65" fill="white"/>
<path d="M53.3571 74.3406C55.0307 74.7181 56.7042 75.0957 58.4285 75.4847C59.0624 78.2019 59.0624 78.2019 59.4428 81.2052C58.7734 81.9603 58.1039 82.7154 57.4142 83.4934C54.7517 83.0644 54.7517 83.0644 52.3428 82.3493C51.7089 80.2756 51.7089 80.2756 51.3286 77.7729C51.998 76.6402 52.6674 75.5076 53.3571 74.3406Z" fill="#292D32"/>
<path d="M53.3569 46.8821C55.7659 47.2396 55.7659 47.2396 58.4283 48.0262C59.0978 49.1588 59.7672 50.2915 60.4569 51.4585C61.461 50.3258 62.4652 49.1932 63.4997 48.0262C64.8386 48.7813 66.1774 49.5364 67.5568 50.3144C67.5568 52.5797 67.5568 54.8451 67.5568 57.179C68.1426 56.7779 68.7283 56.3767 69.3318 55.9634C71.6139 54.8908 71.6139 54.8908 73.8327 55.1053C74.4393 55.4121 75.046 55.7189 75.6711 56.0349C76.6853 59.4672 76.6853 59.4672 75.7344 61.97C75.201 62.9964 75.201 62.9964 74.6568 64.0437C76.665 64.0437 78.6733 64.0437 80.7424 64.0437C81.4398 66.6179 81.4398 66.6179 81.7567 69.7642C80.2987 72.4099 80.2987 72.4099 78.7139 74.3406C81.2242 75.4733 81.2242 75.4733 83.7853 76.6288C83.7853 78.139 83.7853 79.6493 83.7853 81.2052C81.777 81.9603 79.7687 82.7155 77.6996 83.4934C78.3899 84.1306 79.0803 84.7677 79.7916 85.4241C80.4401 86.2972 81.0886 87.1703 81.7567 88.0699C81.5031 91.2162 81.5031 91.2162 80.7424 93.7904C79.0689 93.7904 77.3953 93.7904 75.6711 93.7904C76.1731 97.1884 76.1731 97.1884 76.6853 100.655C74.9103 101.942 74.9103 101.942 72.6282 102.943C70.3461 101.942 70.3461 101.942 68.5711 100.655C69.0732 104.053 69.0732 104.053 69.5854 107.52C68.2465 108.275 66.9077 109.03 65.5283 109.808C63.52 108.298 61.5117 106.787 59.4426 105.231C58.4385 108.063 58.4385 108.063 57.4141 110.952C55.0051 110.594 55.0051 110.594 52.3427 109.808C51.6732 108.675 51.0038 107.543 50.3141 106.376C48.6406 107.508 46.967 108.641 45.2427 109.808C44.2386 109.053 43.2345 108.298 42.1999 107.52C42.702 104.122 42.702 104.122 43.2142 100.655C40.8712 101.41 38.5282 102.165 36.1142 102.943C35.4448 102.188 34.7754 101.433 34.0857 100.655C34.466 97.0797 34.466 97.0797 35.0999 93.7904C33.0917 93.7904 31.0834 93.7904 29.0143 93.7904C28.6796 92.2802 28.3449 90.77 28 89.214C28.6694 88.6948 29.3388 88.1757 30.0286 87.6408C30.698 87.0273 31.3674 86.4138 32.0571 85.7817C32.0571 85.0265 32.0571 84.2714 32.0571 83.4934C30.7183 82.7383 29.3794 81.9832 28 81.2052C28 79.3175 28 77.4297 28 75.4847C29.3388 75.1072 30.6777 74.7296 32.0571 74.3406C31.5341 73.7035 31.0111 73.0664 30.4723 72.4099C29.0143 69.7642 29.0143 69.7642 29.3312 66.6179C29.5614 65.7684 29.7915 64.9189 30.0286 64.0437C32.0368 64.0437 34.0451 64.0437 36.1142 64.0437C35.4448 62.911 34.7754 61.7783 34.0857 60.6113C34.466 58.1086 34.466 58.1086 35.0999 56.0349C37.743 54.9702 38.7939 54.7201 41.4392 55.9634C42.0249 56.3646 42.6107 56.7657 43.2142 57.179C42.8795 54.9137 42.5447 52.6484 42.1999 50.3144C43.9115 48.9558 43.9115 48.9558 46.257 48.0262C49.0463 49.5993 49.0463 49.5993 51.3284 51.4585C51.9978 49.9483 52.6672 48.4381 53.3569 46.8821ZM42.1999 65.1878C38.9624 70.0261 37.4242 75.1225 37.7624 81.1918C38.818 87.5791 41.1729 92.2657 45.8766 96.0786C50.6551 99.0241 55.1346 99.5656 60.4569 98.3668C65.0733 96.1288 69.0944 93.0853 71.6139 88.0699C73.2507 82.5311 73.6191 76.4159 71.8992 70.8278C69.2207 65.1993 65.8162 61.4823 60.4569 59.4672C53.1984 58.4492 47.6174 59.3725 42.1999 65.1878Z" fill="#292D32"/>
<path d="M86.8282 24C87.8323 24 88.8365 24 89.871 24C89.871 24.7551 89.871 25.5102 89.871 26.2882C90.4986 25.8871 91.1262 25.4859 91.7728 25.0726C92.484 24.7186 93.1953 24.3647 93.9281 24C94.5976 24.3776 95.267 24.7551 95.9567 25.1441C95.9567 26.2768 95.9567 27.4094 95.9567 28.5764C97.2955 28.1989 98.6344 27.8213 100.014 27.4323C100.014 29.3201 100.014 31.2079 100.014 33.1528C101.353 33.1528 102.691 33.1528 104.071 33.1528C103.736 34.6631 103.401 36.1733 103.057 37.7293C103.726 38.1068 104.395 38.4844 105.085 38.8734C104.918 39.5813 104.75 40.2892 104.578 41.0186C103.993 43.4047 103.993 43.4047 104.071 45.738C104.071 46.8707 104.071 48.0033 104.071 49.1703C103.067 49.5479 102.063 49.9254 101.028 50.3144C101.363 51.4471 101.697 52.5797 102.042 53.7467C100.369 54.1243 98.6952 54.5018 96.971 54.8908C96.971 56.0235 96.971 57.1562 96.971 58.3232C95.6321 57.9456 94.2933 57.568 92.9138 57.1791C92.5791 58.3117 92.2444 59.4444 91.8996 60.6114C90.7699 60.0096 90.7699 60.0096 89.6174 59.3958C86.694 58.2716 85.5991 58.2858 82.7711 59.4673C82.7711 58.3346 82.7711 57.2019 82.7711 56.0349C81.0975 56.0349 79.424 56.0349 77.6997 56.0349C78.0344 54.1472 78.3691 52.2594 78.714 50.3144C77.7098 50.692 76.7057 51.0695 75.6711 51.4585C74.6569 48.0262 74.6569 48.0262 75.6711 45.738C74.667 45.3604 73.6629 44.9829 72.6283 44.5939C73.6426 41.1616 73.6426 41.1616 75.6711 40.0175C75.3364 38.5073 75.0017 36.997 74.6569 35.4411C75.661 35.4411 76.6651 35.4411 77.6997 35.4411C77.365 33.5533 77.0303 31.6655 76.6854 29.7205C77.3339 29.3902 77.9824 29.0598 78.6506 28.7194C80.8967 27.6288 80.8967 27.6288 81.7568 25.1441C84.2671 26.2768 84.2671 26.2768 86.8282 27.4323C86.8282 26.2997 86.8282 25.167 86.8282 24ZM80.7425 35.4411C79.1051 39.1351 79.1381 42.8881 79.7282 46.8821C82.2934 51.0032 84.0266 52.3331 88.2862 53.8182C92.743 53.73 94.6009 52.3516 97.9852 49.1703C99.609 45.5072 99.5058 41.7041 98.9995 37.7293C97.1803 34.5143 95.9376 32.57 92.9138 30.8646C87.3351 30.271 84.7306 30.9425 80.7425 35.4411Z" fill="#292D32"/>
<rect x="3" y="3" width="128" height="128" rx="64" stroke="#B4B4B4" stroke-width="2"/>
</g>
<defs>
<filter id="filter0_ddddd_40_88" x="0" y="0" width="153" height="156" filterUnits="userSpaceOnUse" color-interpolation-filters="sRGB">
<feFlood flood-opacity="0" result="BackgroundImageFix"/>
<feColorMatrix in="SourceAlpha" type="matrix" values="0 0 0 0 0 0 0 0 0 0 0 0 0 0 0 0 0 0 127 0" result="hardAlpha"/>
<feOffset/>
<feColorMatrix type="matrix" values="0 0 0 0 0 0 0 0 0 0 0 0 0 0 0 0 0 0 0.1 0"/>
<feBlend mode="normal" in2="BackgroundImageFix" result="effect1_dropShadow_40_88"/>
<feColorMatrix in="SourceAlpha" type="matrix" values="0 0 0 0 0 0 0 0 0 0 0 0 0 0 0 0 0 0 127 0" result="hardAlpha"/>
<feOffset dx="1" dy="1"/>
<feGaussianBlur stdDeviation="1.5"/>
<feColorMatrix type="matrix" values="0 0 0 0 0 0 0 0 0 0 0 0 0 0 0 0 0 0 0.1 0"/>
<feBlend mode="normal" in2="effect1_dropShadow_40_88" result="effect2_dropShadow_40_88"/>
<feColorMatrix in="SourceAlpha" type="matrix" values="0 0 0 0 0 0 0 0 0 0 0 0 0 0 0 0 0 0 127 0" result="hardAlpha"/>
<feOffset dx="3" dy="4"/>
<feGaussianBlur stdDeviation="2.5"/>
<feColorMatrix type="matrix" values="0 0 0 0 0 0 0 0 0 0 0 0 0 0 0 0 0 0 0.09 0"/>
<feBlend mode="normal" in2="effect2_dropShadow_40_88" result="effect3_dropShadow_40_88"/>
<feColorMatrix in="SourceAlpha" type="matrix" values="0 0 0 0 0 0 0 0 0 0 0 0 0 0 0 0 0 0 127 0" result="hardAlpha"/>
<feOffset dx="7" dy="9"/>
<feGaussianBlur stdDeviation="3.5"/>
<feColorMatrix type="matrix" values="0 0 0 0 0 0 0 0 0 0 0 0 0 0 0 0 0 0 0.05 0"/>
<feBlend mode="normal" in2="effect3_dropShadow_40_88" result="effect4_dropShadow_40_88"/>
<feColorMatrix in="SourceAlpha" type="matrix" values="0 0 0 0 0 0 0 0 0 0 0 0 0 0 0 0 0 0 127 0" result="hardAlpha"/>
<feOffset dx="13" dy="16"/>
<feGaussianBlur stdDeviation="4"/>
<feColorMatrix type="matrix" values="0 0 0 0 0 0 0 0 0 0 0 0 0 0 0 0 0 0 0.01 0"/>
<feBlend mode="normal" in2="effect4_dropShadow_40_88" result="effect5_dropShadow_40_88"/>
<feBlend mode="normal" in="SourceGraphic" in2="effect5_dropShadow_40_88" result="shape"/>
</filter>
</defs>
</svg>
