<svg width="147" height="150" viewBox="0 0 147 150" fill="none" xmlns="http://www.w3.org/2000/svg">
<g filter="url(#filter0_ddddd_40_101)">
<rect x="2" y="1" width="130" height="130" rx="65" fill="white"/>
<path d="M61.6837 69.6446L22.9082 36L112.577 36.9752L73.3163 69.6446C68.6633 73.5455 63.6224 71.27 61.6837 69.6446Z" fill="#292D32"/>
<path d="M20 38.9256L53.4439 67.6942L20 92.562V38.9256Z" fill="#292D32"/>
<path d="M22.9082 94.0248L55.3827 69.6446C65.852 80.1769 75.5782 74.0331 79.1327 69.6446L112.092 95L22.9082 94.0248Z" fill="#292D32"/>
<path d="M115 94.0248L81.0714 67.6942L115 38.9256V94.0248Z" fill="#292D32"/>
<path d="M61.6837 69.6446L22.9082 36L112.577 36.9752L73.3163 69.6446C68.6633 73.5455 63.6224 71.27 61.6837 69.6446Z" stroke="#292D32"/>
<path d="M20 38.9256L53.4439 67.6942L20 92.562V38.9256Z" stroke="#292D32"/>
<path d="M22.9082 94.0248L55.3827 69.6446C65.852 80.1769 75.5782 74.0331 79.1327 69.6446L112.092 95L22.9082 94.0248Z" stroke="#292D32"/>
<path d="M115 94.0248L81.0714 67.6942L115 38.9256V94.0248Z" stroke="#292D32"/>
<rect x="3" y="2" width="128" height="128" rx="64" stroke="#B4B4B4" stroke-width="2"/>
</g>
<defs>
<filter id="filter0_ddddd_40_101" x="0" y="0" width="147" height="150" filterUnits="userSpaceOnUse" color-interpolation-filters="sRGB">
<feFlood flood-opacity="0" result="BackgroundImageFix"/>
<feColorMatrix in="SourceAlpha" type="matrix" values="0 0 0 0 0 0 0 0 0 0 0 0 0 0 0 0 0 0 127 0" result="hardAlpha"/>
<feOffset/>
<feColorMatrix type="matrix" values="0 0 0 0 0 0 0 0 0 0 0 0 0 0 0 0 0 0 0.1 0"/>
<feBlend mode="normal" in2="BackgroundImageFix" result="effect1_dropShadow_40_101"/>
<feColorMatrix in="SourceAlpha" type="matrix" values="0 0 0 0 0 0 0 0 0 0 0 0 0 0 0 0 0 0 127 0" result="hardAlpha"/>
<feOffset dx="1" dy="1"/>
<feGaussianBlur stdDeviation="1"/>
<feColorMatrix type="matrix" values="0 0 0 0 0 0 0 0 0 0 0 0 0 0 0 0 0 0 0.1 0"/>
<feBlend mode="normal" in2="effect1_dropShadow_40_101" result="effect2_dropShadow_40_101"/>
<feColorMatrix in="SourceAlpha" type="matrix" values="0 0 0 0 0 0 0 0 0 0 0 0 0 0 0 0 0 0 127 0" result="hardAlpha"/>
<feOffset dx="2" dy="3"/>
<feGaussianBlur stdDeviation="2"/>
<feColorMatrix type="matrix" values="0 0 0 0 0 0 0 0 0 0 0 0 0 0 0 0 0 0 0.09 0"/>
<feBlend mode="normal" in2="effect2_dropShadow_40_101" result="effect3_dropShadow_40_101"/>
<feColorMatrix in="SourceAlpha" type="matrix" values="0 0 0 0 0 0 0 0 0 0 0 0 0 0 0 0 0 0 127 0" result="hardAlpha"/>
<feOffset dx="5" dy="8"/>
<feGaussianBlur stdDeviation="2.5"/>
<feColorMatrix type="matrix" values="0 0 0 0 0 0 0 0 0 0 0 0 0 0 0 0 0 0 0.05 0"/>
<feBlend mode="normal" in2="effect3_dropShadow_40_101" result="effect4_dropShadow_40_101"/>
<feColorMatrix in="SourceAlpha" type="matrix" values="0 0 0 0 0 0 0 0 0 0 0 0 0 0 0 0 0 0 127 0" result="hardAlpha"/>
<feOffset dx="9" dy="13"/>
<feGaussianBlur stdDeviation="3"/>
<feColorMatrix type="matrix" values="0 0 0 0 0 0 0 0 0 0 0 0 0 0 0 0 0 0 0.01 0"/>
<feBlend mode="normal" in2="effect4_dropShadow_40_101" result="effect5_dropShadow_40_101"/>
<feBlend mode="normal" in="SourceGraphic" in2="effect5_dropShadow_40_101" result="shape"/>
</filter>
</defs>
</svg>
