<svg width="150" height="154" viewBox="0 0 150 154" fill="none" xmlns="http://www.w3.org/2000/svg">
<g filter="url(#filter0_ddddd_41_118)">
<rect x="2" y="2" width="130" height="130" rx="65" fill="white"/>
<path d="M75.7474 37.9783C76.4327 38.3006 77.118 38.6229 77.824 38.955C76.1108 43.1452 74.3977 47.3353 72.6326 51.6525C73.1465 52.1359 73.1465 52.1359 73.6709 52.6292C75.7267 48.439 77.7825 44.2489 79.9006 39.9317C80.5859 40.254 81.2712 40.5764 81.9772 40.9085C81.7015 41.5455 81.4258 42.1826 81.1417 42.839C77.2954 50.9075 77.2954 50.9075 75.7474 59.4663C76.7606 59.1024 77.7738 58.7386 78.8177 58.3637C80.1519 57.8964 81.4863 57.4297 82.8208 56.9634C83.8216 56.6018 83.8216 56.6018 84.8427 56.2328C89.9307 54.472 89.9307 54.472 93.3985 55.5594C89.9721 57.171 86.5457 58.7826 83.0155 60.443C86.7059 60.443 89.0755 59.4012 92.4251 58.0584C94.4368 57.5128 94.4368 57.5128 97.5517 58.4896C94.6562 59.798 91.7565 61.098 88.8559 62.3965C88.0315 62.7692 87.207 63.1418 86.3575 63.5258C85.5679 63.8784 84.7782 64.2309 83.9646 64.5941C83.236 64.9215 82.5074 65.2488 81.7567 65.5861C79.9006 66.3034 79.9006 66.3034 77.824 66.3034C77.824 66.948 77.824 67.5927 77.824 68.2569C78.6733 68.4891 78.6733 68.4891 79.5397 68.7261C85.6748 70.5118 91.009 72.9737 96.5134 76.0707C92.59 77.3009 91.2865 76.5404 87.4932 75.155C85.9453 74.5979 85.9453 74.5979 84.3661 74.0295C83.5778 73.7361 82.7894 73.4427 81.9772 73.1405C84.8707 75.3193 87.6565 76.8409 91.0623 78.2073C91.8921 78.5434 92.722 78.8796 93.5769 79.226C94.5165 79.598 94.5165 79.598 95.4751 79.9776C94.9611 80.9446 94.9611 80.9446 94.4368 81.931C87.9267 79.6748 81.4165 77.4186 74.7091 75.0939C76.7976 80.7947 76.7976 80.7947 78.9031 86.4899C79.2865 87.5534 79.2865 87.5534 79.6776 88.6384C79.944 89.3647 80.2104 90.0911 80.4849 90.8394C80.9389 92.6751 80.9389 92.6751 79.9006 94.6285C78.8573 92.7182 77.8202 90.8049 76.7857 88.8902C76.2075 87.8251 75.6293 86.7599 75.0336 85.6625C73.6709 82.9078 73.6709 82.9078 73.6709 80.9543C72.9856 80.9543 72.3003 80.9543 71.5943 80.9543C71.9811 81.8369 72.3679 82.7195 72.7664 83.6289C73.2576 84.7809 73.7488 85.933 74.2549 87.1199C74.7488 88.2644 75.2427 89.4089 75.7515 90.5881C76.7857 93.6518 76.7857 93.6518 75.7474 96.582C72.6637 90.7802 69.58 84.9784 66.4028 79.0009C63.319 84.4803 60.2353 89.9598 57.0581 95.6052C56.3728 95.2829 55.6876 94.9606 54.9815 94.6285C56.6947 90.4384 58.4079 86.2482 60.173 81.931C57.7646 84.9518 56.3134 87.1101 54.7868 90.4774C54.4295 91.258 54.0721 92.0387 53.7039 92.8429C53.4403 93.4322 53.1766 94.0214 52.9049 94.6285C52.2197 94.3062 51.5344 93.9839 50.8283 93.6518C53.2268 87.5277 55.6253 81.4036 58.0964 75.0939C52.0363 77.0586 52.0363 77.0586 45.9821 79.0393C44.8516 79.3999 44.8516 79.3999 43.6982 79.7677C42.9261 80.0184 42.154 80.269 41.3585 80.5272C39.4071 80.9543 39.4071 80.9543 37.3305 79.9776C39.3613 78.9961 41.3952 78.0205 43.4305 77.0474C44.5628 76.5035 45.6951 75.9596 46.8617 75.3992C49.79 74.1172 49.79 74.1172 51.8666 74.1172C51.8666 73.4726 51.8666 72.8279 51.8666 72.1638C50.8414 72.5276 49.8162 72.8915 48.7599 73.2664C47.4162 73.7335 46.0723 74.2003 44.7284 74.6666C43.7145 75.0283 43.7145 75.0283 42.6802 75.3973C40.9178 76.004 39.1251 76.5312 37.3305 77.0474C36.6452 76.7251 35.9599 76.4028 35.2539 76.0707C41.4837 73.1405 47.7135 70.2103 53.9432 67.2801C47.7758 64.0569 41.6083 60.8337 35.2539 57.5128C35.9392 57.1905 36.6245 56.8682 37.3305 56.5361C39.6951 57.2954 39.6951 57.2954 42.4571 58.4285C45.5788 59.7044 47.397 60.443 50.8283 60.443C46.3741 58.5091 41.9198 56.5752 37.3305 54.5827C37.6731 53.938 38.0158 53.2934 38.3688 52.6292C44.8789 54.8854 51.389 57.1417 58.0964 59.4663C56.0079 53.7655 56.0079 53.7655 53.9024 48.0703C53.6469 47.3613 53.3913 46.6523 53.128 45.9218C52.8616 45.1955 52.5951 44.4692 52.3206 43.7208C51.8666 41.8852 51.8666 41.8852 52.9049 39.9317C53.9483 41.8421 54.9854 43.7554 56.0198 45.67C56.598 46.7352 57.1762 47.8003 57.7719 48.8978C59.1347 51.6525 59.1347 51.6525 59.1347 53.6059C59.82 53.6059 60.5053 53.6059 61.2113 53.6059C60.8994 52.8643 60.5876 52.1227 60.2663 51.3587C59.8715 50.3879 59.4766 49.4172 59.0698 48.4171C58.6723 47.4539 58.2748 46.4907 57.8652 45.4983C57.0581 42.8619 57.0581 42.8619 58.0964 39.9317C59.3126 42.3308 60.5231 44.7321 61.7305 47.1351C62.0771 47.8175 62.4238 48.4999 62.7809 49.203C65.3645 54.3614 65.3645 54.3614 65.3645 56.5361C66.0498 56.5361 66.735 56.5361 67.4411 56.5361C67.688 55.7542 67.688 55.7542 67.9399 54.9566C69.9335 48.9678 72.635 43.5216 75.7474 37.9783ZM67.4411 57.5128C67.7837 58.8021 68.1264 60.0914 68.4794 61.4198C69.8499 61.0974 71.2205 60.7751 72.6326 60.443C72.2899 59.4761 71.9473 58.5091 71.5943 57.5128C70.2237 57.5128 68.8532 57.5128 67.4411 57.5128ZM57.0581 61.4198C56.7155 62.709 56.3728 63.9983 56.0198 65.3267C57.3904 65.3267 58.7609 65.3267 60.173 65.3267C60.173 64.3597 60.173 63.3927 60.173 62.3965C59.1451 62.0742 58.1172 61.7518 57.0581 61.4198ZM62.2496 63.3732C62.2496 64.0179 62.2496 64.6625 62.2496 65.3267C61.2217 65.8101 61.2217 65.8101 60.173 66.3034C62.0579 69.8517 62.0579 69.8517 65.2996 72.2248C67.6478 72.3477 67.6478 72.3477 69.8421 70.5155C71.8405 68.4422 71.8405 68.4422 71.4645 66.1813C70.6022 64.1709 70.6022 64.1709 68.4794 62.3965C64.5584 62.1053 64.5584 62.1053 62.2496 63.3732ZM73.6709 68.2569C73.3282 69.5461 72.9856 70.8354 72.6326 72.1638C74.0031 72.1638 75.3737 72.1638 76.7857 72.1638C76.4431 70.8745 76.1005 69.5852 75.7474 68.2569C75.0622 68.2569 74.3769 68.2569 73.6709 68.2569ZM61.2113 73.1405C61.2113 74.4298 61.2113 75.7191 61.2113 77.0474C62.2392 77.0474 63.2671 77.0474 64.3262 77.0474C64.3262 75.7581 64.3262 74.4688 64.3262 73.1405C63.2983 73.1405 62.2704 73.1405 61.2113 73.1405Z" fill="#292D32"/>
<path d="M86.325 35.8417C87.2887 36.5468 88.2524 37.2519 89.2452 37.9783C89.8422 38.4001 90.4391 38.8219 91.0541 39.2564C98.7983 45.025 102.996 52.3143 104.82 61.4198C106.029 71.6573 103.849 81.1289 97.4218 89.5618C89.7177 98.0581 80.7218 102.329 69.039 103.724C58.6744 104.229 48.2988 101.04 40.4453 94.6705C32.1942 86.7419 27.9734 78.3712 27.5964 67.2801C27.9372 56.8484 31.6651 48.5512 39.2529 40.9314C52.1575 29.5658 70.9073 27.5946 86.325 35.8417ZM38.3688 43.8387C30.8079 53.449 29.0719 62.2822 30.0624 74.1172C31.9176 83.3233 37.5996 90.3878 45.4908 96.0021C47.5044 97.1936 47.5044 97.1936 50.8283 98.5355C52.6593 99.3815 52.6593 99.3815 54.5272 100.245C63.4139 103.177 73.8 102.363 82.3909 98.978C92.0229 93.917 97.8615 86.724 101.81 77.2268C104.25 69.095 103.922 59.649 100.018 51.9844C94 42.3516 87.2074 36.9897 75.8366 33.4533C61.52 31.0826 48.7056 34.0404 38.3688 43.8387Z" fill="#292D32"/>
<path d="M66.0134 24.1208C76.6994 24.2323 84.0502 27.5259 93.3984 32.1178C93.3984 32.7624 93.3984 33.4071 93.3984 34.0712C94.4263 34.0712 95.4543 34.0712 96.5133 34.0712C96.5133 34.7159 96.5133 35.3605 96.5133 36.0247C97.5412 36.5082 97.5412 36.5082 98.5899 37.0014C99.6178 37.4849 99.6178 37.4849 100.666 37.9782C100.666 38.6228 100.666 39.2674 100.666 39.9316C101.459 40.6367 102.251 41.3418 103.068 42.0682C106.306 45.2559 107.479 47.5145 108.973 51.6523C108.63 52.297 108.288 52.9416 107.935 53.6058C108.62 53.9281 109.305 54.2504 110.011 54.5825C110.429 56.851 110.766 59.133 111.049 61.4196C111.324 62.5736 111.324 62.5736 111.605 63.7508C113.519 73.8717 109.543 82.8119 104.82 91.6982C104.134 91.6982 103.449 91.6982 102.743 91.6982C102.743 92.3429 102.743 92.9875 102.743 93.6517C101.715 94.1351 101.715 94.1351 100.666 94.6284C100.666 95.273 100.666 95.9177 100.666 96.5819C99.9812 96.5819 99.2959 96.5819 98.5899 96.5819C98.5899 97.2265 98.5899 97.8711 98.5899 98.5353C97.9046 98.5353 97.2194 98.5353 96.5133 98.5353C96.5133 99.18 96.5133 99.8246 96.5133 100.489C95.4854 100.489 94.4575 100.489 93.3984 100.489C93.0558 101.133 92.7131 101.778 92.3601 102.442C89.4133 104.855 86.7612 105.982 83.0155 106.96C82.1375 107.194 81.2594 107.428 80.3548 107.669C79.5197 107.878 78.6845 108.087 77.824 108.303C77.1227 108.479 76.4213 108.655 75.6987 108.837C65.4995 111.063 57.3035 110.019 47.7134 106.349C46.1715 105.866 46.1715 105.866 44.5985 105.372C44.5985 104.728 44.5985 104.083 44.5985 103.419C42.8853 103.097 41.1721 102.774 39.407 102.442C39.407 101.798 39.407 101.153 39.407 100.489C38.3791 100.489 37.3512 100.489 36.2922 100.489C36.2922 99.8441 36.2922 99.1995 36.2922 98.5353C35.6069 98.5353 34.9216 98.5353 34.2156 98.5353C34.2156 97.8907 34.2156 97.246 34.2156 96.5819C33.5303 96.5819 32.845 96.5819 32.139 96.5819C32.139 95.6149 32.139 94.6479 32.139 93.6517C31.4537 93.6517 30.7684 93.6517 30.0624 93.6517C30.0624 93.007 30.0624 92.3624 30.0624 91.6982C29.3771 91.3759 28.6918 91.0536 27.9858 90.7215C28.4997 89.7545 28.4997 89.7545 29.0241 88.768C28.3388 88.768 27.6535 88.768 26.9475 88.768C26.9475 88.1234 26.9475 87.4787 26.9475 86.8146C26.2622 86.8146 25.5769 86.8146 24.8709 86.8146C19.9708 73.4497 19.4551 61.0109 24.8709 47.7454C25.5562 47.7454 26.2415 47.7454 26.9475 47.7454C27.1402 46.567 27.1402 46.567 27.3369 45.3647C27.551 44.5387 27.7652 43.7128 27.9858 42.8618C28.6711 42.5395 29.3563 42.2172 30.0624 41.8851C30.0624 41.2404 30.0624 40.5958 30.0624 39.9316C30.7477 39.9316 31.4329 39.9316 32.139 39.9316C32.139 39.287 32.139 38.6423 32.139 37.9782C32.8243 37.9782 33.5095 37.9782 34.2156 37.9782C34.2156 37.3335 34.2156 36.6889 34.2156 36.0247C34.9008 36.0247 35.5861 36.0247 36.2922 36.0247C36.2922 35.3801 36.2922 34.7354 36.2922 34.0712C37.3201 34.0712 38.348 34.0712 39.407 34.0712C39.407 33.4266 39.407 32.782 39.407 32.1178C41.1202 31.7955 42.8334 31.4731 44.5985 31.1411C44.5985 30.4964 44.5985 29.8518 44.5985 29.1876C49.1853 27.2028 53.0634 25.957 58.0964 25.2807C60.0639 23.4299 63.3941 24.1338 66.0134 24.1208ZM40.4453 37.9782C39.4696 38.6977 39.4696 38.6977 38.4742 39.4318C30.9463 45.6629 26.943 54.6648 25.8443 63.9225C25.4636 75.3563 29.2397 85.3111 37.298 93.8691C45.1514 101.029 54.793 104.95 65.7254 105.437C77.1623 105.168 87.3236 101.008 95.6656 93.6517C103.551 85.4843 107.401 75.3662 106.896 64.3498C105.423 53.0858 100.205 44.0876 90.8432 37.0281C75.3478 26.3693 55.4516 26.5051 40.4453 37.9782Z" fill="#292D32"/>
<rect x="3" y="3" width="128" height="128" rx="64" stroke="#B4B4B4" stroke-width="2"/>
</g>
<defs>
<filter id="filter0_ddddd_41_118" x="0" y="0" width="150" height="154" filterUnits="userSpaceOnUse" color-interpolation-filters="sRGB">
<feFlood flood-opacity="0" result="BackgroundImageFix"/>
<feColorMatrix in="SourceAlpha" type="matrix" values="0 0 0 0 0 0 0 0 0 0 0 0 0 0 0 0 0 0 127 0" result="hardAlpha"/>
<feOffset/>
<feColorMatrix type="matrix" values="0 0 0 0 0 0 0 0 0 0 0 0 0 0 0 0 0 0 0.1 0"/>
<feBlend mode="normal" in2="BackgroundImageFix" result="effect1_dropShadow_41_118"/>
<feColorMatrix in="SourceAlpha" type="matrix" values="0 0 0 0 0 0 0 0 0 0 0 0 0 0 0 0 0 0 127 0" result="hardAlpha"/>
<feOffset dx="1" dy="1"/>
<feGaussianBlur stdDeviation="1.5"/>
<feColorMatrix type="matrix" values="0 0 0 0 0 0 0 0 0 0 0 0 0 0 0 0 0 0 0.1 0"/>
<feBlend mode="normal" in2="effect1_dropShadow_41_118" result="effect2_dropShadow_41_118"/>
<feColorMatrix in="SourceAlpha" type="matrix" values="0 0 0 0 0 0 0 0 0 0 0 0 0 0 0 0 0 0 127 0" result="hardAlpha"/>
<feOffset dx="3" dy="4"/>
<feGaussianBlur stdDeviation="2.5"/>
<feColorMatrix type="matrix" values="0 0 0 0 0 0 0 0 0 0 0 0 0 0 0 0 0 0 0.09 0"/>
<feBlend mode="normal" in2="effect2_dropShadow_41_118" result="effect3_dropShadow_41_118"/>
<feColorMatrix in="SourceAlpha" type="matrix" values="0 0 0 0 0 0 0 0 0 0 0 0 0 0 0 0 0 0 127 0" result="hardAlpha"/>
<feOffset dx="6" dy="8"/>
<feGaussianBlur stdDeviation="3"/>
<feColorMatrix type="matrix" values="0 0 0 0 0 0 0 0 0 0 0 0 0 0 0 0 0 0 0.05 0"/>
<feBlend mode="normal" in2="effect3_dropShadow_41_118" result="effect4_dropShadow_41_118"/>
<feColorMatrix in="SourceAlpha" type="matrix" values="0 0 0 0 0 0 0 0 0 0 0 0 0 0 0 0 0 0 127 0" result="hardAlpha"/>
<feOffset dx="11" dy="15"/>
<feGaussianBlur stdDeviation="3.5"/>
<feColorMatrix type="matrix" values="0 0 0 0 0 0 0 0 0 0 0 0 0 0 0 0 0 0 0.01 0"/>
<feBlend mode="normal" in2="effect4_dropShadow_41_118" result="effect5_dropShadow_41_118"/>
<feBlend mode="normal" in="SourceGraphic" in2="effect5_dropShadow_41_118" result="shape"/>
</filter>
</defs>
</svg>
